<?xml version="1.0" encoding="iso-8859-1"?>
<!-- Generator: Adobe Illustrator 19.0.0, SVG Export Plug-In . SVG Version: 6.00 Build 0)  -->
<svg version="1.1" id="Capa_1" xmlns="http://www.w3.org/2000/svg" xmlns:xlink="http://www.w3.org/1999/xlink" x="0px" y="0px"
	 viewBox="0 0 512 512" style="enable-background:new 0 0 512 512;" xml:space="preserve">
<linearGradient id="SVGID_1_" gradientUnits="userSpaceOnUse" x1="0" y1="258" x2="512" y2="258" gradientTransform="matrix(1 0 0 -1 0 514)">
	<stop  offset="0" style="stop-color:#80D8FF"/>
	<stop  offset="1" style="stop-color:#EA80FC"/>
</linearGradient>
<path style="fill:url(#SVGID_1_);" d="M452,0H286c-11.046,0-20,8.954-20,20v206c0,11.046,8.954,20,20,20h206
	c11.046,0,20-8.954,20-20V60C512,26.916,485.084,0,452,0z M472,206H306V40h146c11.028,0,20,8.972,20,20V206z M226,0H60
	C26.916,0,0,26.916,0,60v166c0,11.046,8.954,20,20,20h206c11.046,0,20-8.954,20-20V20C246,8.954,237.046,0,226,0z M206,206H40V60
	c0-11.028,8.972-20,20-20h146V206z M492,266H286c-11.046,0-20,8.954-20,20v206c0,11.046,8.954,20,20,20h166
	c33.084,0,60-26.916,60-60V286C512,274.954,503.046,266,492,266z M472,452c0,11.028-8.972,20-20,20H306V306h166V452z M226,266H20
	c-11.046,0-20,8.954-20,20v166c0,33.084,26.916,60,60,60h166c11.046,0,20-8.954,20-20V286C246,274.954,237.046,266,226,266z
	 M206,472H60c-11.028,0-20-8.972-20-20V306h166V472z"/>
<g>
</g>
<g>
</g>
<g>
</g>
<g>
</g>
<g>
</g>
<g>
</g>
<g>
</g>
<g>
</g>
<g>
</g>
<g>
</g>
<g>
</g>
<g>
</g>
<g>
</g>
<g>
</g>
<g>
</g>
</svg>
