<svg id="Capa_1" enable-background="new 0 0 512 512" height="512" viewBox="0 0 512 512" width="512" xmlns="http://www.w3.org/2000/svg"><g><path d="m432.853 279.132h36.195c23.677 0 42.879-19.18 42.905-42.858.026-23.714-19.191-42.952-42.905-42.952h-36.195z" fill="#b1e4f9"/><g><g><g><g><g><path d="m355.072 40.83h-307.667c-26.181 0-47.405 21.224-47.405 47.405v229.261c0 26.181 21.224 47.405 47.405 47.405h19.977c6.144 0 11.823 3.273 14.903 8.59l31.929 55.125c4.539 0 8.734-2.418 11.009-6.346l28.254-48.78c3.08-5.317 8.758-8.59 14.903-8.59h65.174c-.001 0-.001 0-.002 0h121.52c26.181 0 47.405-21.224 47.405-47.405v-229.26c0-26.181-21.224-47.405-47.405-47.405z" fill="#ffe07d"/><g fill="#ffd064"><path d="m412.913 40.83h-65.174c26.181 0 47.405 21.224 47.405 47.405v229.261c0 26.181-21.224 47.405-47.405 47.405h65.174c26.181 0 47.405-21.224 47.405-47.405v-229.261c0-26.181-21.224-47.405-47.405-47.405z"/><path d="m146.144 373.492-31.929 55.125 20.668 35.682c5.306 9.161 18.533 9.161 23.839 0l52.597-90.808c3.079-5.317 8.758-8.59 14.903-8.59h-65.174c-6.146 0-11.825 3.274-14.904 8.591z"/></g><g><g><path d="m395.144 243.07c-.599-8.716-10.919-13.319-17.404-7.495l-88.108 79.133c-4.457 4.002-4.457 10.987 0 14.989l88.108 79.133c6.485 5.824 16.805 1.222 17.404-7.495v-36.394h11.802c23.886 0 43.254-19.354 43.271-43.239l.027-42.57h-55.1z" fill="#f0f7ff"/></g><path d="m511.953 236.275c-.026 23.677-19.227 42.858-42.905 42.858h-22.301l-.031 42.57c-.017 23.885-19.385 43.239-43.271 43.239h65.221c23.885 0 43.254-19.354 43.271-43.239l.063-85.428z" fill="#e0f2ff"/></g></g></g></g></g><g><g><path d="m401.684 132.76h-343.05c-4.268 0-7.726-3.459-7.726-7.726s3.459-7.726 7.726-7.726h343.05c4.268 0 7.726 3.459 7.726 7.726 0 4.266-3.458 7.726-7.726 7.726z" fill="#f0f7ff"/></g><g><path d="m401.684 196.723h-343.05c-4.268 0-7.726-3.459-7.726-7.726s3.459-7.726 7.726-7.726h343.05c4.268 0 7.726 3.459 7.726 7.726s-3.458 7.726-7.726 7.726z" fill="#f0f7ff"/></g><g><path d="m264.66 260.687h-206.026c-4.268 0-7.726-3.459-7.726-7.726s3.459-7.726 7.726-7.726h206.026c4.268 0 7.726 3.459 7.726 7.726s-3.458 7.726-7.726 7.726z" fill="#f0f7ff"/></g></g></g></g></svg>